<?xml version="1.0" encoding="UTF-8" standalone="no"?>
<!-- Created with Inkscape (http://www.inkscape.org/) -->

<svg
   width="63.5mm"
   height="82.020836mm"
   viewBox="0 0 63.499998 82.020836"
   version="1.1"
   id="svg5"
   xml:space="preserve"
   inkscape:version="1.2.2 (b0a8486541, 2022-12-01)"
   sodipodi:docname="fedora-logo-sprite.svg"
   inkscape:export-filename="arfedora_2.png"
   inkscape:export-xdpi="96"
   inkscape:export-ydpi="96"
   xmlns:inkscape="http://www.inkscape.org/namespaces/inkscape"
   xmlns:sodipodi="http://sodipodi.sourceforge.net/DTD/sodipodi-0.dtd"
   xmlns="http://www.w3.org/2000/svg"
   xmlns:svg="http://www.w3.org/2000/svg"><sodipodi:namedview
     id="namedview7"
     pagecolor="#ffffff"
     bordercolor="#000000"
     borderopacity="0.25"
     inkscape:showpageshadow="2"
     inkscape:pageopacity="0.0"
     inkscape:pagecheckerboard="0"
     inkscape:deskcolor="#d1d1d1"
     inkscape:document-units="mm"
     showgrid="false"
     inkscape:zoom="0.7071068"
     inkscape:cx="162.63456"
     inkscape:cy="272.94321"
     inkscape:window-width="1366"
     inkscape:window-height="699"
     inkscape:window-x="0"
     inkscape:window-y="32"
     inkscape:window-maximized="1"
     inkscape:current-layer="layer1"
     showguides="true" /><defs
     id="defs2"><filter
       style="color-interpolation-filters:sRGB"
       inkscape:label="Drop Shadow"
       id="filter11053"
       x="-0.010413082"
       y="-0.028759282"
       width="1.0208262"
       height="1.0814846"><feFlood
         flood-opacity="1"
         flood-color="rgb(0,0,0)"
         result="flood"
         id="feFlood11043" /><feComposite
         in="flood"
         in2="SourceGraphic"
         operator="in"
         result="composite1"
         id="feComposite11045" /><feGaussianBlur
         in="composite1"
         stdDeviation="0.1"
         result="blur"
         id="feGaussianBlur11047" /><feOffset
         dx="1.38778e-16"
         dy="0.2"
         result="offset"
         id="feOffset11049" /><feComposite
         in="SourceGraphic"
         in2="offset"
         operator="over"
         result="composite2"
         id="feComposite11051" /></filter><filter
       style="color-interpolation-filters:sRGB"
       inkscape:label="Drop Shadow"
       id="filter2431"
       x="-0.0047276388"
       y="-0.017412625"
       width="1.0094548"
       height="1.0431156"><feFlood
         flood-opacity="1"
         flood-color="rgb(0,0,0)"
         result="flood"
         id="feFlood2421" /><feComposite
         in="flood"
         in2="SourceGraphic"
         operator="in"
         result="composite1"
         id="feComposite2423" /><feGaussianBlur
         in="composite1"
         stdDeviation="0.1"
         result="blur"
         id="feGaussianBlur2425" /><feOffset
         dx="1.38778e-16"
         dy="0.2"
         result="offset"
         id="feOffset2427" /><feComposite
         in="SourceGraphic"
         in2="offset"
         operator="over"
         result="composite2"
         id="feComposite2429" /></filter></defs><g
     inkscape:label="طبقة 1"
     inkscape:groupmode="layer"
     id="layer1"
     transform="translate(-85.076997,-91.250566)"><rect
       style="font-variation-settings:normal;display:none;opacity:1;vector-effect:none;fill:#ffffff;fill-opacity:1;stroke-width:0.152975;stroke-linecap:butt;stroke-linejoin:miter;stroke-miterlimit:4;stroke-dasharray:none;stroke-dashoffset:0;stroke-opacity:1;-inkscape-stroke:none;stop-color:#000000;stop-opacity:1"
       id="rect5698"
       width="111.21848"
       height="76.201271"
       x="60.928829"
       y="93.97374"
       rx="0"
       ry="0" /><path
       id="path863"
       style="fill:#0e568f;fill-opacity:1;stroke-width:0.873328"
       d="m 113.8705,91.251173 c -0.43151,-0.0065 -0.77823,0.03892 -1.01942,0.151144 -6.08173,-0.03244 -7.85134,9.908103 -8.14156,11.860073 0,0 -3.0154,33.60756 -2.90524,37.03849 0.77174,-2.14503 4.49195,-35.05394 4.49195,-35.05394 1.54036,-8.889925 4.42408,-10.445224 7.76509,-10.093502 l 10.507,2.443742 c 0,0 -4.3583,-0.376233 -11.06915,3.36561 -6.11046,4.9835 -7.68428,11.21645 -7.68428,11.21645 0,0 4.07702,-5.81811 9.21427,-8.09891 2.57775,-1.36601 12.89997,-4.743362 12.89997,-4.743362 1.51571,-0.405426 2.063,-0.670484 2.29152,1.511842 0,0 1.81912,18.81566 2.30185,20.51549 0.0179,-4.23394 -1.19304,-21.547943 -1.19304,-21.547943 0.1481,-2.628892 -1.25321,-3.281795 -1.25321,-3.281795 0,0 -12.03457,-5.200033 -16.20575,-5.283065 z m -9.42915,14.233447 c -4.999429,0.17385 -6.899781,2.9817 -7.981685,3.87514 -1.08191,0.89345 -4.825586,5.30727 -7.380005,12.09808 -2.554422,6.79076 -4.092699,18.10327 -3.998578,25.0342 0.07199,2.84094 0.271419,26.28507 11.483445,26.76737 11.212033,0.48264 15.728293,-13.72979 19.717833,-20.24394 14.54736,-16.96657 23.2699,-15.33491 27.16145,-17.22027 3.49948,-1.40233 5.01088,-5.71847 5.13145,-11.48467 0.0722,-3.45227 -2.10363,-8.99617 -7.23216,-7.60947 -5.12855,1.38664 -9.38771,5.67468 -14.80471,14.2636 -2.7085,4.29447 -12.37652,20.38672 -17.58103,30.3475 -3.22516,6.17254 -8.55586,8.85735 -12.991073,8.47773 -8.701529,-2.37045 -9.305077,-16.24119 -9.43946,-27.1931 0.881821,-18.68339 6.52872,-27.39421 8.088267,-29.47923 4.421179,-5.86241 6.487086,-6.36463 9.826256,-7.63294 z m 38.50565,14.3742 c 5.99264,-0.013 3.87885,8.88719 3.07543,10.12703 -3.98729,6.40343 -8.63491,2.76174 -17.35754,9.65771 -5.19262,3.46933 -9.90362,9.0107 -9.90362,9.0107 0,0 10.77725,-18.39901 13.51541,-21.67534 2.05095,-2.44973 3.78808,-4.66656 7.57769,-6.52006 1.21443,-0.41452 2.23654,-0.59809 3.09263,-0.60004 z m -43.276094,12.31597 c -3.913125,14.59638 4.073414,18.55612 6.819584,18.08517 5.21392,0.35095 10.85083,-4.88081 10.85083,-4.88081 -8.7591,2.31167 -12.19687,0.89837 -12.19687,0.89837 -2.47577,-0.81184 -6.154617,-1.82321 -5.473544,-14.10273 z"
       sodipodi:nodetypes="cccccccccccccccsccsccccscssccccccccccccccccc" /><g
       id="g4805"
       transform="matrix(0.47104761,0,0,0.91854207,41.217916,-11.633819)"><g
         id="g11420"
         transform="translate(74.083337)"><path
           fill="#51a2da"
           d="m 53.394956,7.6891164 c -4.104402,0 -6.738883,3.0593346 -6.763538,5.9214166 v 16.594 c -0.0052,2.046517 3.173135,2.046517 3.167445,0 v -11.07468 h 3.25659 c 0.761704,0 1.412072,-0.54131 1.412072,-1.409606 0,-0.868298 -0.696647,-1.393109 -1.412072,-1.393109 h -3.25659 v -2.551026 c 0,-1.633414 1.303205,-2.994848 3.926115,-2.962605 0.9123,0.0118 1.233977,0.228171 1.567032,0.427321 1.8191,1.181628 3.56954,-1.5543242 1.663384,-2.60034 C 55.786853,7.9392881 54.696454,7.6912032 53.39344,7.6912032 Z m 34.709132,0.2959385 c -0.987982,-0.051872 -1.714784,0.9077484 -1.562862,1.8204278 v 7.0689033 c -3.133307,-2.575683 -8.23346,-2.395498 -11.123991,0.456151 -2.924676,2.556717 -3.480402,7.188396 -1.35347,10.380495 1.562482,2.410675 4.421149,4.130958 7.366685,3.994398 1.852291,-0.01685 3.687135,-0.801729 5.111536,-1.959268 -0.146138,0.914575 0.574501,1.883404 1.571207,1.8246 0.97849,0.0428 1.738297,-0.904331 1.58808,-1.820427 C 89.68414,22.95266 89.718407,16.156876 89.68414,9.3610919 89.633452,8.5973013 88.890188,7.9672261 88.112932,7.9884685 h -0.0036 z m 12.239242,6.9209641 c -4.777954,-2e-6 -8.651554,3.767458 -8.652631,8.415541 -0.0011,4.649567 3.873152,8.419342 8.652631,8.41934 4.77947,-4e-6 8.6537,-3.769777 8.65262,-8.41934 -10e-4,-4.648079 -3.87467,-8.415537 -8.65262,-8.415541 z m 28.26045,0.07396 c -2.16032,0 -3.71749,0.629127 -4.8517,1.425919 -1.72142,1.208751 0.1307,3.736449 1.8521,2.526372 0.78351,-0.549846 1.36541,-0.842503 3.00054,-0.842503 2.03514,0.04008 3.67007,0.788257 3.67007,2.279802 -1.09097,0.676925 -5.83418,1.238335 -8.37952,2.659138 -2.54722,1.420416 -2.41256,3.212965 -2.41256,4.375628 0,2.551023 2.74449,4.273206 5.12102,4.273206 2.37464,0 3.38366,-0.488773 5.7071,-2.050308 v 0.443825 c -0.0751,2.143239 3.24709,2.143239 3.17122,0 v -9.15904 c 0.0104,-3.799038 -2.76913,-5.875897 -6.87543,-5.934694 z m -15.75567,0.03286 c -1.37453,0 -1.60365,1.112779 -1.59644,1.561531 v 13.511904 c -0.0377,0.873421 0.69891,1.598518 1.62166,1.598518 0.92272,0 1.65921,-0.725097 1.62166,-1.598518 0,0 0.0244,-5.026187 0,-8.242943 -0.0244,-3.216758 2.64585,-3.912838 3.57333,-3.912838 0.68962,0 1.2427,0.377627 1.78913,0.357522 0.81121,-0.02999 1.47485,-0.56445 1.47485,-1.499888 -0.0244,-1.511271 -1.91183,-1.725216 -3.3059,-1.697144 -1.39386,0.02795 -2.57189,0.446855 -3.5904,1.043739 0,0 -0.21338,-1.121883 -1.58809,-1.121883 z m -48.668665,0.03286 c -1.052274,-0.07935 -2.215314,0.08606 -3.493673,0.57128 -3.097268,1.174041 -5.198783,4.058883 -5.208267,7.618938 -0.0086,3.728864 2.65155,8.540726 8.170873,8.576763 3.711789,0.02394 5.568632,-1.335827 6.570076,-2.26084 0.664788,-0.577727 0.713907,-1.581636 0.104776,-2.215313 -0.610351,-0.63463 -1.634368,-0.650179 -2.262732,-0.03284 -0.748052,0.68906 -1.849826,1.712697 -4.973082,1.372622 -1.340379,-0.145514 -2.778627,-1.213495 -3.260383,-2.02944 l 10.232559,-4.269414 c 0.782567,-0.341019 1.144069,-1.231324 0.812912,-2.004786 C 69.50216,17.728705 67.337106,15.28579 64.181039,15.04681 Z m 36.169585,3.01192 c 2.98881,9e-6 5.41201,2.356145 5.41309,5.263268 0.002,2.909348 -2.42199,5.268956 -5.41309,5.268965 -2.991106,5e-6 -5.415274,-2.359607 -5.413116,-5.268965 0.0011,-2.907133 2.424298,-5.263273 5.413116,-5.263268 z m -19.09952,0.0822 c 2.827942,-0.07241 5.354312,2.425849 5.301207,5.174128 0.05943,2.750179 -2.475157,5.244305 -5.301214,5.174124 -2.687576,0.06989 -5.151365,-2.162208 -5.287925,-4.779618 -0.286205,-2.697067 1.972543,-5.329654 4.739789,-5.543978 0.182476,-0.01752 0.365489,-0.02474 0.548895,-0.02474 z m -17.859081,0.0822 c 1.538774,0.0015 2.991055,0.779723 3.728861,2.033236 l -8.517963,3.567642 c -0.608074,-2.226696 1.88757,-4.842208 3.247105,-5.329652 0.509638,-0.182669 1.028946,-0.271604 1.541997,-0.271226 z m 69.000991,5.210166 c -7.1e-4,1.007321 0.0155,1.298464 -0.0121,2.30446 -0.007,1.209317 -0.78105,1.768648 -1.59226,2.230488 -0.81102,0.462787 -2.45999,0.867917 -3.41402,0.912297 -1.10102,0.0357 -2.55861,-0.206928 -2.63638,-1.487556 7.2e-4,-0.773092 0.38294,-1.253705 1.0098,-1.787618 1.48471,-1.092298 3.49367,-1.457971 6.64593,-2.173591 z"
           id="path4191-3"
           sodipodi:nodetypes="cccccssscsccccccccccccccccccssscsccccccsscccccccccscsscccccccccccccccccccscscscccccccccccccccccccc"
           style="fill:#0e568f;fill-opacity:1;stroke:#ffffff;stroke-width:0.36012;stroke-dasharray:none;stroke-opacity:1;filter:url(#filter2431)"
           transform="matrix(0.27773917,0,0,0.27773917,57.82782,151.70678)" /><path
           d="m 77.634285,135.70673 c -2.07601,0 -3.57237,0.60455 -4.662307,1.37024 -1.65422,1.16158 0.12557,3.59059 1.779797,2.42775 0.75292,-0.52839 1.31209,-0.80961 2.88341,-0.80961 1.955687,0.0384 3.526787,0.75748 3.526787,2.19079 -1.04838,0.65051 -5.606427,1.19 -8.052394,2.55535 -2.44777,1.36496 -2.31836,3.08752 -2.31836,4.2048 0,2.45142 2.63735,4.10639 4.921077,4.10639 2.28195,0 3.251577,-0.4697 5.484307,-1.97029 v 0.42651 c -0.0723,2.05957 3.120327,2.05957 3.047417,0 v -8.80146 c 0.01,-3.65073 -2.661007,-5.64651 -6.607014,-5.70303 z m 9.572644,0.0316 c -1.32089,0 -1.54104,1.06935 -1.53412,1.50058 v 12.98441 c -0.0361,0.83931 0.67161,1.5361 1.55834,1.5361 0.88671,0 1.59444,-0.69679 1.55836,-1.5361 0,0 0.0234,-4.82998 0,-7.92115 -0.0234,-3.09117 2.542557,-3.76008 3.433827,-3.76008 0.66268,0 1.19418,0.36289 1.71927,0.34356 0.779547,-0.0288 1.417267,-0.54242 1.417267,-1.44133 -0.0234,-1.45226 -1.837187,-1.65787 -3.176827,-1.6309 -1.33944,0.0268 -2.47148,0.42942 -3.450227,1.003 0,0 -0.20505,-1.07809 -1.52609,-1.07809 z m -5.932877,8.09066 c -6.9e-4,0.96801 0.0147,1.24778 -0.0111,2.2145 -0.006,1.1621 -0.75055,1.69959 -1.5301,2.14342 -0.77936,0.4447 -2.363957,0.83401 -3.280737,0.87667 -1.05804,0.0343 -2.45874,-0.19886 -2.53348,-1.42949 7.1e-4,-0.7429 0.36798,-1.20476 0.97037,-1.71782 1.42677,-1.04966 3.3573,-1.40105 6.386497,-2.08874 z"
           style="fill:#0e568f;fill-opacity:1;stroke:#ffffff;stroke-width:0.307367;stroke-dasharray:none;stroke-opacity:1"
           id="path4663-2"
           sodipodi:nodetypes="ccccccsscccccccccscsscccccccccccccc" /><path
           d="m 77.634285,135.70673 c -2.07601,0 -3.57237,0.60455 -4.662307,1.37024 -1.65422,1.16158 0.12557,3.59059 1.779797,2.42775 0.75292,-0.52839 1.31209,-0.80961 2.88341,-0.80961 1.955687,0.0384 3.526787,0.75748 3.526787,2.19079 -1.04838,0.65051 -5.606427,1.19 -8.052394,2.55535 5.348594,0 6.14282,0 11.134441,0 v -2.03405 c 0.01,-3.65073 -2.661007,-5.64651 -6.607014,-5.70303 z m 9.572644,0.0316 c -1.32089,0 -1.54104,1.06935 -1.53412,1.50058 v 6.20234 c 1.24386,0 2.066675,0 3.1167,0 0,0 0.0234,1.95209 0,-1.13908 -0.0234,-3.09117 2.542557,-3.76008 3.433827,-3.76008 0.66268,0 1.19418,0.36289 1.71927,0.34356 0.779547,-0.0288 1.417267,-0.54242 1.417267,-1.44133 -0.0234,-1.45226 -1.837187,-1.65787 -3.176827,-1.6309 -1.33944,0.0268 -2.47148,0.42942 -3.450227,1.003 0,0 -0.20505,-1.07809 -1.52609,-1.07809 z"
           style="fill:#cfe7ff;fill-opacity:1;stroke:none;stroke-width:0.083308;stroke-dasharray:none;stroke-opacity:1;filter:url(#filter11053)"
           id="path4663-2-6"
           sodipodi:nodetypes="ccccccccccccccsscccccc" /></g></g></g></svg>
